#!OML:ASF H:\MichaelJackson\Top Level 1\Subject 1\Session 1\male.ASF
:FULLY-SPECIFIED
:DEGREES
1450
root 1.60189 16.9023 24.2319 -340.913 -32.1932 -12.6311
lowerback 5.70438 1.10337 7.70376
upperback 2.11388 1.88001 2.89273
thorax -0.85584 0.936024 -1.44138
lowerneck -9.95734 -0.855918 0.611719
upperneck 21.8782 -1.8404 1.81057
head 8.44924 -0.684533 0.309768
rclavicle -1.68718e-014 7.15625e-015
rhumerus -236.82 169.672 -276.121
rradius 76.1974
rwrist -23.9981
rhand -25.0788 -37.3738
rfingers 7.12502
rthumb 1.43549 -427.349
lclavicle -1.68718e-014 7.15625e-015
lhumerus -10.7207 -21.457 87.8221
lradius 115.672
lwrist 63.739
lhand -33.1733 44.4617
lfingers 7.12502
lthumb -6.3815 74.3456
rfemur -27.6619 -8.98779 35.7489
rtibia 32.7288
rfoot -17.36 6.4017
rtoes 15.0601
lfemur -51.0164 6.18822 -8.41668
ltibia 47.7251
lfoot 12.8493 -11.28
ltoes 41.8111
1451
root 1.56534 16.8786 24.2909 -340.668 -32.4152 -13.1546
lowerback 5.5738 1.09114 7.89971
upperback 2.0972 1.86129 3.02626
thorax -0.799177 0.927452 -1.40756
lowerneck -9.94048 -0.777069 0.707354
upperneck 21.9116 -1.73361 1.72831
head 8.45515 -0.635396 0.276867
rclavicle 5.09634e-014 2.88238e-015
rhumerus -236.59 169.863 -275.949
rradius 76.2094
rwrist -25.6363
rhand -25.2246 -39.1332
rfingers 7.12502
rthumb 1.29464 -429.109
lclavicle 5.09634e-014 2.88238e-015
lhumerus -10.6738 -21.3294 87.5949
lradius 113.87
lwrist 65.1921
lhand -34.1819 46.8003
lfingers 7.12502
lthumb -7.35513 76.6524
rfemur -27.5013 -10.0356 36.2903
rtibia 33.0075
rfoot -17.7609 8.02596
rtoes 16.4519
lfemur -50.6816 6.43076 -7.96268
ltibia 48.1518
lfoot 11.3684 -11.5709
ltoes 41.5834
1452
root 1.52812 16.858 24.3476 -340.423 -32.5988 -13.6103
lowerback 5.44192 1.06894 8.04717
upperback 2.07594 1.82647 3.13276
thorax -0.748722 0.91075 -1.37405
lowerneck -9.95222 -0.70483 0.815151
upperneck 21.9446 -1.64575 1.67836
head 8.46678 -0.590707 0.250685
rclavicle -2.94698e-014 5.06901e-014
rhumerus -236.307 170.083 -275.812
rradius 76.1983
rwrist -26.9358
rhand -25.5562 -41.0618
rfingers 7.12502
rthumb 0.974341 -431.039
lclavicle -2.94698e-014 5.06901e-014
lhumerus -10.7134 -21.3095 87.363
lradius 112.346
lwrist 66.3357
lhand -34.9544 48.31
lfingers 7.12502
lthumb -8.10079 78.1347
rfemur -27.3512 -10.8953 36.742
rtibia 33.2502
rfoot -18.1517 9.38429
rtoes 17.5564
lfemur -50.4103 6.68463 -7.59226
ltibia 48.5487
lfoot 10.0231 -11.8401
ltoes 41.3499
1453
root 1.49081 16.841 24.402 -340.167 -32.7653 -13.9994
lowerback 5.3031 1.04474 8.15015
upperback 2.05093 1.78589 3.20851
thorax -0.699327 0.891287 -1.34743
lowerneck -9.98926 -0.639415 0.931213
upperneck 21.9652 -1.57576 1.65971
head 8.47945 -0.550454 0.231705
rclavicle -5.45664e-014 -1.41137e-014
rhumerus -235.987 170.331 -275.713
rradius 76.1698
rwrist -27.8479
rhand -26.0379 -43.0522
rfingers 7.12502
rthumb 0.509129 -433.031
lclavicle -5.45664e-014 -1.41137e-014
lhumerus -10.8433 -21.3962 87.1409
lradius 111.126
lwrist 67.0291
lhand -35.4553 48.9861
lfingers 7.12502
lthumb -8.58413 78.7916
rfemur -27.2166 -11.5422 37.1068
rtibia 33.4467
rfoot -18.5322 10.4526
rtoes 18.3094
lfemur -50.2002 6.93934 -7.28853
ltibia 48.885
lfoot 8.87662 -12.0655
ltoes 41.2195
1454
root 1.45421 16.8277 24.4542 -339.893 -32.9368 -14.3196
lowerback 5.16023 1.02517 8.20537
upperback 2.01621 1.74928 3.25326
thorax -0.658128 0.873522 -1.32688
lowerneck -10.0483 -0.580187 1.04452
upperneck 21.9735 -1.52012 1.66977
head 8.49252 -0.514154 0.221313
rclavicle -3.98563e-014 5.78463e-014
rhumerus -235.651 170.6 -275.645
rradius 76.1231
rwrist -28.3583
rhand -26.5955 -44.9445
rfingers 7.12502
rthumb -0.029439 -434.924
lclavicle -3.98563e-014 5.78463e-014
lhumerus -11.0629 -21.5688 86.9502
lradius 110.213
lwrist 67.2121
lhand -35.6674 48.9876
lfingers 7.12502
lthumb -8.78884 78.7846
rfemur -27.1115 -11.9759 37.3864
rtibia 33.5988
rfoot -18.9008 11.2451
rtoes 18.704
lfemur -50.0406 7.19183 -7.04735
ltibia 49.1511
lfoot 7.89027 -12.2564
ltoes 41.1572
1455
root 1.41902 16.8176 24.5044 -339.605 -33.1273 -14.5745
lowerback 5.01202 1.01669 8.22227
upperback 1.9768 1.72531 3.26651
thorax -0.618061 0.862126 -1.31844
lowerneck -10.1152 -0.529423 1.14682
upperneck 21.9532 -1.47928 1.70703
head 8.49778 -0.483048 0.220421
rclavicle 1.53561e-014 5.36719e-015
rhumerus -235.318 170.892 -275.602
rradius 76.0621
rwrist -28.5094
rhand -27.1676 -46.5884
rfingers 7.12502
rthumb -0.581936 -436.567
lclavicle 1.53561e-014 5.36719e-015
lhumerus -11.3516 -21.8077 86.802
lradius 109.585
lwrist 66.9109
lhand -35.6172 48.4922
lfingers 7.12502
lthumb -8.74037 78.2913
rfemur -27.0345 -12.2063 37.5834
rtibia 33.7131
rfoot -19.2542 11.7862
rtoes 18.7858
lfemur -49.9052 7.43439 -6.86044
ltibia 49.3504
lfoot 6.9815 -12.425
ltoes 41.0844
1456
root 1.38574 16.8103 24.5528 -339.308 -33.3444 -14.7657
lowerback 4.86593 1.01891 8.20126
upperback 1.93167 1.71461 3.25287
thorax -0.584473 0.857153 -1.3177
lowerneck -10.1747 -0.485323 1.23257
upperneck 21.8958 -1.44645 1.75988
head 8.48936 -0.455769 0.226805
rclavicle 9.76033e-014 -1.39149e-015
rhumerus -235.01 171.181 -275.58
rradius 75.9968
rwrist -28.3905
rhand -27.7274 -47.8957
rfingers 7.12502
rthumb -1.12259 -437.872
lclavicle 9.76033e-014 -1.39149e-015
lhumerus -11.7072 -22.0635 86.7106
lradius 109.221
lwrist 66.2437
lhand -35.3607 47.7942
lfingers 7.12502
lthumb -8.49286 77.6034
rfemur -26.9872 -12.2567 37.7003
rtibia 33.7986
rfoot -19.5931 12.1065
rtoes 18.5719
lfemur -49.7802 7.65441 -6.72482
ltibia 49.4877
lfoot 6.08658 -12.5726
ltoes 40.9284
